<svg width="90" height="90" viewBox="0 0 90 90" fill="none" xmlns="http://www.w3.org/2000/svg">
<path d="M57.5223 6.41897C49.0848 2.42835 45.041 2.54085 45.041 2.54085H44.9598C44.9598 2.54085 40.8973 2.42835 32.4754 6.41897C21.1067 11.7908 17.3535 11.419 5.9879 11.419V62.2346C5.9879 64.0565 4.48478 72.144 18.0567 72.144H71.9473C85.5067 72.144 84.0129 64.0565 84.0129 62.2346V11.4127C72.641 11.4127 68.8973 11.7908 57.5223 6.41272" fill="#F58220"/>
<path d="M44.3747 19.5436C43.406 20.3842 42.4435 20.6717 41.6841 20.578C41.0591 20.4967 40.5435 20.0374 39.9279 20.0592C38.4997 20.1155 37.356 22.3311 37.7404 23.7842C37.8841 24.2999 38.6466 25.0561 39.0872 25.3467C42.506 27.5342 49.2529 25.2186 52.2122 29.1749C53.6747 31.1217 53.606 34.7811 50.6497 35.9999C49.6372 35.4967 48.8153 34.7999 47.5466 34.5499C49.1622 34.4561 52.1404 32.178 49.5122 30.3124C49.1262 30.0476 48.7056 29.8373 48.2622 29.6874C44.8935 28.5436 37.981 30.2499 35.3341 25.653C34.2716 23.8061 34.6122 20.9436 36.1622 19.4499C37.3185 18.3342 39.481 17.8467 41.0216 17.6905C42.2716 17.5655 43.7779 17.9436 44.3341 19.5655" fill="white"/>
<path d="M51.9309 28.0251C50.5715 27.4845 49.5121 26.647 47.8965 26.3688C49.6652 25.7438 51.6059 25.5407 52.2402 23.9907C52.6152 23.0532 52.1215 20.4438 50.4809 20.1626C49.9965 20.0813 49.3746 20.3688 48.8277 20.4751C48.1371 20.6063 45.8215 20.5376 45.7246 19.4407C45.659 18.722 47.2559 17.8063 47.9121 17.6813C51.3246 17.0188 55.4527 19.4876 55.2559 23.472C55.1527 25.5282 53.8496 27.0345 51.9465 28.0251" fill="white"/>
<path d="M41.1748 16.1315C39.7779 16.8659 38.7936 15.6315 37.4498 15.194C37.7904 14.844 38.4436 14.8096 38.8998 14.569C37.7061 14.6284 35.4623 15.1534 34.6561 13.5346C35.2123 13.2971 35.8623 13.1534 36.4154 12.9096C33.9967 13.1409 30.5654 14.1971 28.6592 11.8752C31.6061 10.1409 35.1154 7.12212 38.5873 7.42837C41.7123 7.70337 39.4842 12.2534 41.1748 13.944C41.7811 14.5502 42.4592 14.6815 43.8623 14.7721C44.3279 15.2721 44.5529 16.0221 44.8967 16.6471C43.4248 16.7659 42.3967 16.9159 40.4498 16.6471C40.5998 16.3846 41.0748 16.4471 41.1748 16.1315" fill="white"/>
<path d="M53.4813 12.8126C53.9282 13.2251 54.7313 13.2938 55.3563 13.5345C54.4688 15.0126 52.3907 14.8282 51.0126 14.472C51.3251 14.8626 52.0313 14.8313 52.4595 15.097C51.3251 15.6845 50.272 16.8126 48.7345 16.1313C48.8251 16.422 49.2751 16.3501 49.4595 16.5438C47.7345 17.1501 46.647 16.4751 45.2188 16.8563C45.0532 16.1376 45.7376 15.3782 46.047 14.7907C48.1032 14.9345 49.2532 13.7345 49.5626 12.2907C49.9313 10.6032 48.6251 8.32509 50.7001 7.53447C51.2595 7.32197 52.3563 7.40322 52.9751 7.53447C55.3501 8.05634 59.0407 10.3126 61.2501 11.7876C59.6532 14.247 55.6251 13.222 53.4938 12.822" fill="white"/>
<path d="M43.3467 11.1655C44.1904 11.4343 46.0779 11.2624 46.6561 11.1655C46.3779 13.0687 43.6467 13.0593 43.3467 11.1655Z" fill="white"/>
<path d="M76.2504 15.0971V15.2002C73.2441 18.3814 68.7504 17.2314 65.1848 16.3377C62.6441 15.7127 60.1223 14.7596 57.6348 13.8564C59.3473 13.5627 61.2441 13.7346 61.8754 11.9814C66.941 13.7033 71.6879 14.5346 76.2504 15.0846" fill="white"/>
<path d="M32.2781 13.75C29.4656 15.1656 25.7156 16.25 22.5563 16.85C19.8563 17.3781 15.6062 18.1 13.7656 15.0937C18.5729 14.5448 23.3171 13.5403 27.9344 12.0938C28.9531 13.4844 30.4563 13.7937 32.2781 13.75" fill="white"/>
<path d="M45.8281 12.9251C46.2937 14.2814 45.4343 15.1126 45.1031 16.0283C44.6993 15.6504 44.394 15.1795 44.2137 14.6566C44.0334 14.1337 43.9836 13.5747 44.0687 13.0283C44.6937 12.5095 45.1031 12.5564 45.8281 12.9251Z" fill="white"/>
<path d="M35.6939 14.8904C32.1471 17.6467 27.4033 19.3279 23.2814 19.0248C21.9283 18.9279 20.3346 18.8373 19.2471 17.7748C23.3721 17.4623 28.9346 15.5654 32.9002 13.7435C33.8877 13.2904 34.7096 14.5967 35.6939 14.881" fill="white"/>
<path d="M70.7533 17.7846C65.3752 20.7002 59.4252 18.1971 54.3096 15.0971C54.9346 14.7002 55.7471 13.5127 56.6877 13.6502C57.6846 13.7939 58.9158 14.7533 60.1002 15.2127C63.5459 16.4616 67.1184 17.3282 70.7533 17.7971" fill="white"/>
<path d="M39.0029 16.5436C35.5186 18.7811 30.6248 21.9936 25.9717 19.4405C28.8717 18.903 33.1967 17.1561 35.8998 15.5093C36.8373 14.9311 38.1436 15.8624 39.0029 16.5436" fill="white"/>
<path d="M64.0313 19.3376C59.5625 22.1501 54.3969 18.622 50.9062 16.647C51.6813 15.947 52.6781 15.122 53.7 15.3032C54.3906 15.4251 55.2625 16.2407 56.0781 16.647C58.45 17.8626 61.4875 18.9626 64.0438 19.3376" fill="white"/>
<path d="M42.7248 17.0625C42.3748 17.7844 41.2811 17.3219 40.4498 17.375C38.2623 17.5062 35.8092 18.9375 34.8654 20.6844C33.8436 20.7156 33.4592 20.5188 32.4873 20.3719C34.6748 19.1031 37.2154 18.2062 39.2092 16.75C40.3687 16.9636 41.5457 17.0682 42.7248 17.0625" fill="white"/>
<path d="M44.7937 16.9596C44.9441 17.6185 44.8716 18.3088 44.5875 18.9221C44 18.5096 43.6688 17.8439 42.8281 17.6721C43.3406 16.9346 43.95 17.0002 44.7937 16.9502" fill="white"/>
<path d="M45.1033 16.9595C45.9471 17.0188 46.7189 16.9438 47.1721 17.7845C46.3596 17.972 46.0533 18.6688 45.4127 19.0345C45.1061 18.3921 44.9973 17.6731 45.1002 16.9688" fill="white"/>
<path d="M41.6904 18.6127C42.0217 18.7033 42.0029 18.4533 42.1061 18.3002C41.9717 18.3002 41.9623 18.1658 41.7936 18.1971C41.7623 18.3346 41.6467 18.394 41.6904 18.6096" fill="white"/>
<path d="M47.9997 18.3034C47.9684 18.5752 48.1434 18.6409 48.4122 18.6159C48.4434 18.344 48.3747 18.1721 48.0997 18.2034C48.0997 18.2659 48.0841 18.3252 47.9966 18.3065" fill="white"/>
<path d="M41.7936 18.2002C41.9623 18.169 41.9717 18.2971 42.1061 18.3033C42.0154 18.4533 42.0217 18.7033 41.6904 18.6158C41.6467 18.4002 41.7623 18.3408 41.7936 18.2033" fill="#F58220"/>
<path d="M48.1036 18.1999C48.3755 18.1687 48.4442 18.3406 48.4161 18.6124C48.1473 18.6406 47.9724 18.5749 48.0036 18.2999C48.0911 18.3187 48.1005 18.2593 48.1067 18.1968" fill="#F58220"/>
<path d="M44.8972 18.9219C45.4784 19.3063 45.4315 20.3188 45.9315 20.7969C45.7097 22.6156 46.1191 24.2531 45.7253 26.0719C45.1003 25.9125 44.6816 26.125 44.0691 25.9687C44.4191 24.7656 43.4284 21.5438 44.8972 18.9344" fill="white"/>
<path d="M41.7933 29.6873C40.5214 30.0936 39.1495 31.4279 39.4152 32.4811C39.8152 34.0436 42.6558 34.5811 44.2745 34.6686C46.587 34.7654 49.2589 35.0092 50.5839 36.8373C51.6152 38.2592 52.0433 41.3967 49.6464 42.7342C48.7839 42.4217 48.2402 41.7967 47.2683 41.5967C49.1433 41.3092 50.0058 39.0061 48.3027 37.7686C46.8808 36.7373 44.2089 37.2904 42.3058 36.9436C40.5777 36.6311 38.0527 35.7529 37.237 34.0467C36.5808 32.6748 36.7402 30.2623 38.3745 28.6686C38.462 28.6498 38.4714 28.7092 38.4777 28.7717C39.5466 29.1942 40.6553 29.5083 41.787 29.7092" fill="white"/>
<path d="M44.1715 29.6875C44.7965 29.8469 45.2152 29.6344 45.8277 29.7906C45.684 31.9781 45.8715 32.6781 45.7246 34.3406H44.1621C44.1621 32.8406 44.1621 30.85 44.1621 29.6875" fill="white"/>
<path d="M44.2747 37.4346H45.7247C45.581 39.3689 45.7653 39.7877 45.6216 41.4689H44.2747C44.3122 39.0408 44.1185 38.5127 44.2747 37.4346" fill="white"/>
<path d="M42.8282 43.95C42.1125 44.575 41.5032 45.8844 42.2032 46.8437C43.3313 48.3812 48.0375 47.8906 48.6125 50.775C48.7282 51.3469 48.8125 51.7125 48.2 52.8438C47.8282 53.5375 46.6375 54.4969 45.5125 53.4688C46.9125 53.3063 48.1407 50.8156 46.45 49.9531C45.6157 49.5281 44.45 49.7125 43.4532 49.4375C41.1875 48.8125 38.8563 46.5719 40.8657 43.4375C41.6813 43.4375 42.0188 43.9406 42.8313 43.9563" fill="white"/>
<path d="M43.6561 49.8436C42.9873 50.4686 42.4061 51.2311 43.0311 52.3248C43.8373 53.6967 46.9154 53.6342 47.3748 55.9467C47.5186 56.6686 47.1186 59.0529 45.1873 58.8404C45.1873 60.3373 45.0904 60.3748 45.0842 61.5311C44.7529 61.3936 44.7092 60.6998 44.6717 60.1873C44.6467 59.8748 44.7998 59.4561 44.6717 58.9373C42.6217 58.7248 42.0686 55.6342 43.5342 54.3873C43.768 54.5065 44.0091 54.6108 44.2561 54.6998C44.3311 55.1936 43.7436 55.2904 43.5342 55.8342C43.1623 56.8029 43.4779 58.1748 44.5686 58.5248C44.6779 57.8998 44.6279 56.5123 44.4654 55.1123C44.7311 54.7998 45.0404 54.9779 45.4029 55.0092C45.2936 56.0123 45.1779 58.0561 45.3029 58.5248C46.8279 58.1342 46.7686 56.5873 46.5529 55.9404C45.9279 54.1529 43.0561 54.8279 41.8967 52.9404C41.3592 52.0654 41.3311 50.3123 42.1061 49.4248C42.7529 49.4248 43.0936 49.7373 43.6686 49.8373" fill="white"/>
<path d="M44.3746 50.0498C44.5496 49.8154 45.1621 50.0123 45.5121 49.9467C45.4246 50.8592 45.4434 51.2529 45.4059 53.2561H44.4684C44.4903 52.1862 44.4558 51.116 44.3652 50.0498" fill="white"/>
<path d="M47.0684 17.1655C48.2402 17.3061 49.3371 16.5905 50.4809 16.7499C51.5121 16.8936 52.7527 18.0374 53.8934 18.6249C55.0491 19.2579 56.2617 19.7811 57.5152 20.1874C56.834 20.8124 56.034 20.478 55.134 20.8124C53.9559 18.4561 50.5902 16.8686 47.584 17.6061C47.3465 17.5374 47.309 17.2624 47.0684 17.1936" fill="white"/>
<path d="M45.6254 43.6408C45.6441 43.5502 45.5847 43.5408 45.5222 43.5377C43.3597 43.6721 39.6941 43.5158 38.7972 40.9502C38.2879 39.4877 38.8285 37.7096 39.8316 36.6064C40.647 36.934 41.4819 37.2106 42.3316 37.4346C41.0066 38.1564 40.1629 39.9846 41.5035 40.9502C43.7066 42.5408 46.7441 40.5877 48.9504 43.0189C50.3722 44.5814 50.5129 47.3439 48.1222 48.8096C47.3535 48.6158 46.8129 48.1846 45.9347 48.0877C48.6472 47.7314 49.0347 43.8596 45.7285 43.5377C45.3754 45.4627 45.6941 45.3658 45.5222 47.7752H44.3754C44.591 44.9783 43.4816 43.3064 45.6254 43.6408Z" fill="white"/>
<path d="M44.275 6.61572H45.625C46.7344 7.09697 47.3313 7.83135 47.3813 8.89072C47.5188 11.7032 42.6375 12.0938 42.625 8.89072C42.625 8.01885 43.3313 7.06885 44.2781 6.61572" fill="white"/>
<path fill-rule="evenodd" clip-rule="evenodd" d="M10.8438 57.2501H22.45C24.4393 57.2778 26.4209 56.9985 28.325 56.422C30.0728 55.9173 31.6397 54.923 32.8406 53.5564C34.0052 52.2085 34.6073 50.3751 34.6469 48.0564C34.6094 45.948 33.9552 44.1897 32.6844 42.7814C31.3831 41.3599 29.6023 40.4695 27.6844 40.2814V40.1908C29.2517 39.7612 30.6573 38.8785 31.725 37.6533C32.7333 36.4658 33.2542 34.9595 33.2875 33.1345C33.2562 31.1845 32.7635 29.6147 31.8094 28.4251C30.8516 27.227 29.5742 26.3245 28.125 25.822C26.6118 25.2785 25.014 25.0086 23.4063 25.0251H10.8438V57.2501ZM16.5625 29.9345H21.3094C23.4635 29.9345 25.0448 30.2783 26.0531 30.9658C27.0615 31.6533 27.5604 32.6949 27.55 34.0908C27.5673 34.6591 27.4457 35.2232 27.1957 35.734C26.9458 36.2447 26.575 36.6869 26.1156 37.022C25.1635 37.7574 23.7292 38.1251 21.8125 38.1251H16.5625V29.9345ZM16.5625 43.0595H22.0844C24.4031 43.0387 26.1229 43.3762 27.2437 44.072C28.3646 44.7678 28.9219 45.948 28.9156 47.6126C28.8844 49.0064 28.4937 50.048 27.7437 50.7376C26.9689 51.4215 26.0188 51.876 25 52.0501C23.9645 52.2592 22.9094 52.3556 21.8531 52.3376H16.5625V43.0595Z" fill="white"/>
<path d="M10.1094 68.0345H11.3V65.6938H13.6219V68.0345H14.8156V62.6157H13.6219V64.6376H11.3V62.6157H10.1094V68.0345Z" fill="white"/>
<path fill-rule="evenodd" clip-rule="evenodd" d="M15.4937 65.3125C15.4833 65.8416 15.6149 66.364 15.875 66.825C16.1182 67.2452 16.4759 67.5876 16.9062 67.8125C17.3761 68.0447 17.8931 68.1655 18.4172 68.1655C18.9413 68.1655 19.4583 68.0447 19.9281 67.8125C20.3581 67.5885 20.7157 67.2472 20.9594 66.8281C21.2096 66.3638 21.3407 65.8446 21.3407 65.3171C21.3407 64.7897 21.2096 64.2705 20.9594 63.8062C20.7157 63.3871 20.3581 63.0458 19.9281 62.8218C19.4583 62.5896 18.9413 62.4688 18.4172 62.4688C17.8931 62.4688 17.3761 62.5896 16.9062 62.8218C16.4763 63.0458 16.1187 63.3871 15.875 63.8062C15.6159 64.2653 15.4842 64.7854 15.4937 65.3125V65.3125ZM16.7437 65.3125C16.7246 64.8541 16.8836 64.4061 17.1875 64.0625C17.516 63.7457 17.9546 63.5687 18.4109 63.5687C18.8673 63.5687 19.3059 63.7457 19.6344 64.0625C19.9319 64.411 20.0954 64.8542 20.0954 65.3125C20.0954 65.7707 19.9319 66.214 19.6344 66.5625C19.3059 66.8792 18.8673 67.0563 18.4109 67.0563C17.9546 67.0563 17.516 66.8792 17.1875 66.5625C16.8771 66.2215 16.7113 65.7733 16.725 65.3125" fill="white"/>
<path d="M25.659 63.0438C25.4337 62.8483 25.1712 62.7005 24.8871 62.6095C24.5999 62.52 24.3005 62.4757 23.9996 62.4782C23.6529 62.4742 23.3092 62.5423 22.9902 62.6782C22.6877 62.8017 22.425 63.006 22.2309 63.2688C22.0256 63.5499 21.9161 63.8895 21.9184 64.2376C21.9056 64.5383 21.9997 64.8339 22.184 65.0719C22.353 65.2724 22.5672 65.4298 22.809 65.5313C23.0551 65.6332 23.3065 65.7219 23.5621 65.797C23.7803 65.8589 23.9901 65.9471 24.1871 66.0594C24.2664 66.1045 24.3325 66.1693 24.3791 66.2477C24.4257 66.3261 24.4511 66.4152 24.4527 66.5063C24.4501 66.5947 24.4238 66.6808 24.3765 66.7556C24.3292 66.8304 24.2627 66.8911 24.184 66.9313C24.0128 67.0256 23.8201 67.0741 23.6246 67.072C23.4242 67.0717 23.2265 67.0257 23.0465 66.9376C22.8732 66.8474 22.7225 66.7192 22.6059 66.5626L21.7559 67.5001C21.9997 67.726 22.2852 67.9022 22.5965 68.0188C22.9117 68.1293 23.2437 68.1843 23.5777 68.1813C23.9329 68.185 24.2853 68.1192 24.6152 67.9876C24.9187 67.8658 25.1819 67.6611 25.3746 67.3969C25.5743 67.1025 25.676 66.7526 25.6652 66.397C25.6805 66.0862 25.589 65.7797 25.4059 65.5282C25.2412 65.3231 25.0257 65.1648 24.7809 65.0688C24.5417 64.9669 24.2952 64.8833 24.0434 64.8188C23.825 64.766 23.6148 64.684 23.4184 64.5751C23.338 64.5353 23.2704 64.4738 23.2231 64.3976C23.1758 64.3214 23.1507 64.2335 23.1507 64.1438C23.1507 64.0541 23.1758 63.9662 23.2231 63.89C23.2704 63.8138 23.338 63.7524 23.4184 63.7126C23.5812 63.6276 23.7628 63.5846 23.9465 63.5876C24.1079 63.5871 24.2679 63.6167 24.4184 63.6751C24.5715 63.7291 24.7074 63.8229 24.8121 63.947L25.659 63.0438Z" fill="white"/>
<path fill-rule="evenodd" clip-rule="evenodd" d="M26.4121 68.0343H27.6059V65.9374H28.4809C28.982 65.9702 29.4809 65.8468 29.909 65.5842C30.2819 65.3363 30.4736 64.9009 30.484 64.278C30.5017 63.9229 30.403 63.5718 30.2027 63.278C30.0142 63.0353 29.7539 62.8582 29.459 62.7717C29.1236 62.6712 28.7746 62.6237 28.4246 62.6311H26.4121V68.0343ZM27.6059 63.6249H28.2309C28.3891 63.6227 28.5472 63.6363 28.7027 63.6655C28.8467 63.6903 28.9815 63.7528 29.0934 63.8467C29.1487 63.9004 29.1921 63.9652 29.2206 64.0368C29.2492 64.1085 29.2622 64.1853 29.259 64.2624C29.265 64.3642 29.2436 64.4659 29.1968 64.5566C29.1501 64.6473 29.0798 64.7238 28.9934 64.778C28.8167 64.8752 28.6166 64.9217 28.4152 64.9124H27.6059V63.6249Z" fill="white"/>
<path d="M32.1312 62.6157H30.9375V68.0345H32.1312V62.6157Z" fill="white"/>
<path d="M34.1279 68.0345H35.3217V63.672H36.8686V62.6157H32.5811V63.672H34.1279V68.0345Z" fill="white"/>
<path fill-rule="evenodd" clip-rule="evenodd" d="M36.334 68.0345H37.6496L38.1027 66.8876H40.209L40.6746 68.0345H42.0215L39.6652 62.6157H38.6777L36.334 68.0345ZM39.8027 65.8782H38.4777L39.1371 64.1938L39.8027 65.8782Z" fill="white"/>
<path d="M42.3252 68.0345H45.7314V66.9345H43.5189V62.6157H42.3252V68.0345Z" fill="white"/>
<path fill-rule="evenodd" clip-rule="evenodd" d="M48.3877 68.0343H49.5814V65.9374H50.4533C50.9554 65.9702 51.4554 65.8469 51.8846 65.5842C52.2554 65.3363 52.4471 64.9009 52.4596 64.278C52.4764 63.9226 52.3765 63.5714 52.1752 63.278C51.9879 63.0354 51.7287 62.8582 51.4346 62.7717C51.0992 62.6712 50.7502 62.6237 50.4002 62.6311H48.3877V68.0343ZM49.5814 63.6249H50.2064C50.3637 63.6229 50.5207 63.6365 50.6752 63.6655C50.8201 63.6902 50.956 63.7527 51.0689 63.8467C51.1244 63.9002 51.1676 63.965 51.1957 64.0368C51.2237 64.1085 51.2359 64.1855 51.2314 64.2624C51.2385 64.364 51.2178 64.4657 51.1716 64.5565C51.1253 64.6473 51.0553 64.7239 50.9689 64.778C50.7923 64.8752 50.5922 64.9217 50.3908 64.9124H49.5939L49.5814 63.6249Z" fill="white"/>
<path d="M54.5594 68.0345H55.5156L57.75 62.6157H56.4719L55.1094 66.1689H55.0938L53.7531 62.6157H52.3906L54.5594 68.0345Z" fill="white"/>
<path d="M58.8066 68.0345H59.9973V63.672H61.5441V62.6157H57.2598V63.672H58.8066V68.0345Z" fill="white"/>
<path d="M61.3252 67.378C61.3252 67.5645 61.3993 67.7433 61.5311 67.8752C61.663 68.007 61.8418 68.0811 62.0283 68.0811C62.1208 68.0815 62.2124 68.0636 62.2979 68.0284C62.3834 67.9932 62.4611 67.9415 62.5264 67.8761C62.5918 67.8107 62.6436 67.733 62.6788 67.6476C62.714 67.5621 62.7319 67.4704 62.7315 67.378C62.7327 67.2853 62.7154 67.1933 62.6805 67.1074C62.6456 67.0216 62.5939 66.9435 62.5283 66.878C62.4628 66.8125 62.3848 66.7607 62.2989 66.7258C62.213 66.6909 62.121 66.6736 62.0283 66.6749C61.9359 66.6745 61.8443 66.6924 61.7588 66.7275C61.6733 66.7627 61.5956 66.8145 61.5302 66.8799C61.4648 66.9453 61.4131 67.0229 61.3779 67.1084C61.3427 67.1939 61.3248 67.2855 61.3252 67.378" fill="white"/>
<path d="M65.1816 68.0345H68.5879V66.9345H66.3754V62.6157H65.1816V68.0345Z" fill="white"/>
<path d="M69.584 68.0345H70.7777V63.672H72.3246V62.6157H68.0371V63.672H69.584V68.0345Z" fill="white"/>
<path fill-rule="evenodd" clip-rule="evenodd" d="M72.9316 68.0345H74.8848C75.4033 68.0377 75.9166 67.9312 76.391 67.722C76.8371 67.5262 77.2209 67.2117 77.5004 66.8127C77.7899 66.3747 77.9402 65.8595 77.9316 65.3345C77.9534 64.7747 77.8029 64.2217 77.5004 63.7502C77.2108 63.3505 76.808 63.0468 76.3441 62.8783C75.8284 62.6921 75.2829 62.6021 74.7348 62.6127H72.9441L72.9316 68.0345ZM74.1254 63.7189H74.8285C75.1492 63.7111 75.4682 63.7685 75.766 63.8877C76.0344 63.9922 76.2675 64.171 76.4379 64.4033C76.6132 64.6619 76.7029 64.9691 76.6941 65.2814C76.6941 65.8877 76.4973 66.3189 76.1379 66.5689C75.725 66.8355 75.2379 66.9635 74.7473 66.9345H74.1223L74.1254 63.7189Z" fill="white"/>
<path d="M78.4844 67.378C78.4844 67.5645 78.5585 67.7433 78.6903 67.8752C78.8222 68.007 79.001 68.0811 79.1875 68.0811C79.28 68.0815 79.3716 68.0636 79.4571 68.0284C79.5426 67.9932 79.6202 67.9415 79.6856 67.8761C79.751 67.8107 79.8028 67.733 79.838 67.6476C79.8731 67.5621 79.891 67.4704 79.8906 67.378C79.8919 67.2853 79.8746 67.1933 79.8397 67.1074C79.8048 67.0216 79.753 66.9435 79.6875 66.878C79.622 66.8125 79.5439 66.7607 79.4581 66.7258C79.3722 66.6909 79.2802 66.6736 79.1875 66.6749C79.0951 66.6745 79.0034 66.6924 78.9179 66.7275C78.8325 66.7627 78.7548 66.8145 78.6894 66.8799C78.624 66.9453 78.5723 67.0229 78.5371 67.1084C78.5019 67.1939 78.484 67.2855 78.4844 67.378" fill="white"/>
<path d="M11.3721 87.3343H14.7314V86.5468H12.2408V85.2218H14.4846V84.4374H12.2408V83.2343H14.6064V82.4468H11.3721V87.3343Z" fill="#F58220"/>
<path d="M15.8848 87.3343H16.7535V83.5874H16.766L19.1848 87.3343H20.2879V82.4468H19.4191V86.078H19.4035L17.0379 82.4468H15.8848V87.3343Z" fill="#F58220"/>
<path d="M21.6777 87.3343H22.5465V85.1812H24.8309V87.3343H25.6996V82.4468H24.8309V84.3937H22.5465V82.4468H21.6777V87.3343Z" fill="#F58220"/>
<path fill-rule="evenodd" clip-rule="evenodd" d="M26.541 87.3343H27.516L27.9566 86.2155H30.0754L30.5316 87.3343H31.5254L29.4191 82.4468H28.6691L26.541 87.3343ZM28.2535 85.4593L29.0191 83.4718L29.7723 85.4593H28.2535Z" fill="#F58220"/>
<path d="M32.3691 87.3343H33.2379V83.5874H33.2504L35.6691 87.3343H36.7723V82.4468H35.9035V86.078H35.8879L33.5223 82.4468H32.3691V87.3343Z" fill="#F58220"/>
<path d="M42.1877 83.0968C41.9726 82.8407 41.7023 82.6366 41.3971 82.4999C41.1002 82.3769 40.7809 82.3173 40.4596 82.3249C39.9945 82.3147 39.5345 82.4222 39.1221 82.6374C38.7405 82.8446 38.4252 83.1555 38.2127 83.5343C37.9853 83.9541 37.8702 84.4256 37.8783 84.903C37.8707 85.3704 37.986 85.8317 38.2127 86.2405C38.4255 86.6166 38.7409 86.9244 39.1221 87.128C39.535 87.3419 39.9947 87.4493 40.4596 87.4405C40.8078 87.443 41.1526 87.3728 41.4721 87.2343C41.7946 87.0871 42.0735 86.8589 42.2815 86.5718L41.5627 86.0593C41.4226 86.2453 41.2447 86.3997 41.0408 86.5124C40.8642 86.6072 40.6663 86.6556 40.4658 86.653C40.2381 86.6589 40.0118 86.616 39.8021 86.527C39.5924 86.4381 39.4042 86.3052 39.2502 86.1374C38.9396 85.7767 38.7747 85.3132 38.7877 84.8374C38.7849 84.5296 38.8579 84.2259 39.0002 83.953C39.1331 83.6944 39.3354 83.4779 39.5846 83.328C39.8509 83.1692 40.1558 83.0871 40.4658 83.0905C40.6396 83.0889 40.8119 83.1229 40.9721 83.1905C41.171 83.2807 41.3488 83.4117 41.494 83.5749L42.1877 83.0968Z" fill="#F58220"/>
<path d="M44.0348 82.4468H43.166V87.3343H44.0348V82.4468Z" fill="#F58220"/>
<path d="M45.4092 87.3343H46.2779V83.5874H46.2904L48.7092 87.3343H49.8123V82.4468H48.9436V86.078H48.9279L46.5623 82.4468H45.4092V87.3343Z" fill="#F58220"/>
<path d="M55.5442 84.478H53.6692V85.2624H54.6879V86.4155C54.5251 86.507 54.349 86.5723 54.166 86.6093C53.9606 86.6531 53.751 86.6741 53.541 86.6718C53.3133 86.6777 53.087 86.6347 52.8773 86.5458C52.6676 86.4568 52.4794 86.324 52.3254 86.1561C52.0162 85.7947 51.8514 85.3317 51.8629 84.8561C51.8601 84.5484 51.9331 84.2446 52.0754 83.9718C52.2082 83.7131 52.4106 83.4967 52.6598 83.3468C52.9261 83.188 53.231 83.1058 53.541 83.1093C53.7819 83.1103 54.0207 83.1526 54.2473 83.2343C54.4605 83.3107 54.6553 83.431 54.8192 83.5874L55.4598 82.9374C55.2077 82.7144 54.9086 82.551 54.5848 82.4593C54.2431 82.3639 53.8894 82.3186 53.5348 82.3249C53.0697 82.3147 52.6096 82.4222 52.1973 82.6374C51.8157 82.8446 51.5004 83.1555 51.2879 83.5343C51.0605 83.9541 50.9454 84.4256 50.9535 84.903C50.9459 85.3704 51.0612 85.8317 51.2879 86.2405C51.5017 86.6159 51.8168 86.9234 52.1973 87.128C52.6096 87.3432 53.0697 87.4507 53.5348 87.4405C53.8956 87.4422 54.2554 87.4013 54.6067 87.3186C54.9333 87.2382 55.2483 87.1163 55.5442 86.9561V84.478Z" fill="#F58220"/>
<path d="M60.4219 87.3343H63.3687V86.5468H61.2906V82.4468H60.4219V87.3343Z" fill="#F58220"/>
<path d="M65.1598 82.4468H64.291V87.3343H65.1598V82.4468Z" fill="#F58220"/>
<path d="M67.8846 87.3343H68.6377L70.6127 82.4468H69.6721L68.3002 86.1405L66.9658 82.4468H65.9658L67.8846 87.3343Z" fill="#F58220"/>
<path d="M71.4277 87.3343H74.7902V86.5468H72.2965V85.2218H74.5402V84.4374H72.2965V83.2343H74.6652V82.4468H71.4277V87.3343Z" fill="#F58220"/>
<path d="M78.9719 82.8279C78.7851 82.6542 78.5636 82.5221 78.3219 82.4404C78.0798 82.3615 77.8265 82.3225 77.5719 82.3248C77.2738 82.323 76.9781 82.377 76.7 82.4842C76.4388 82.5832 76.209 82.7505 76.0344 82.9686C75.856 83.2085 75.7626 83.5009 75.7688 83.7998C75.7568 84.085 75.8416 84.3658 76.0094 84.5967C76.1639 84.7827 76.3612 84.9285 76.5844 85.0217C76.8091 85.1159 77.0386 85.1983 77.2719 85.2686C77.476 85.3257 77.67 85.4143 77.8469 85.5311C77.9235 85.5831 77.9857 85.6536 78.0277 85.7361C78.0698 85.8186 78.0904 85.9104 78.0875 86.0029C78.0878 86.1035 78.0625 86.2026 78.0138 86.2906C77.9651 86.3787 77.8948 86.4528 77.8094 86.5061C77.6367 86.616 77.4359 86.6735 77.2313 86.6717C77.0406 86.6732 76.8526 86.627 76.6844 86.5373C76.5152 86.4499 76.3711 86.3208 76.2656 86.1623L75.6094 86.7873C75.8045 87.0153 76.0538 87.1904 76.3344 87.2967C76.6155 87.3999 76.913 87.4518 77.2125 87.4498C77.517 87.4538 77.819 87.3954 78.1 87.2779C78.3617 87.1705 78.5872 86.9905 78.75 86.7592C78.9196 86.5017 79.0068 86.1987 79 85.8904C79.013 85.6037 78.9269 85.3212 78.7563 85.0904C78.6043 84.9002 78.4064 84.7518 78.1812 84.6592C77.9583 84.5631 77.7298 84.4807 77.4969 84.4123C77.2942 84.357 77.1005 84.2728 76.9219 84.1623C76.8468 84.1175 76.7848 84.0538 76.7421 83.9776C76.6993 83.9014 76.6772 83.8153 76.6781 83.7279C76.6753 83.6327 76.6971 83.5384 76.7415 83.4541C76.7858 83.3697 76.8512 83.2983 76.9312 83.2467C77.0965 83.1455 77.2876 83.0944 77.4813 83.0998C77.6477 83.0981 77.8127 83.1311 77.9656 83.1967C78.1144 83.2567 78.2433 83.3574 78.3375 83.4873L78.9719 82.8279Z" fill="#F58220"/>
<path d="M12.2184 76.3374H11.3496V81.2249H12.2184V76.3374Z" fill="#F58220"/>
<path d="M13.3184 81.2218H14.1434V77.1655H14.159L15.6434 81.2218H16.2496L17.734 77.1655H17.7496V81.2218H18.5746V76.3374H17.2652L15.9465 79.7593L14.6402 76.3374H13.3184V81.2218Z" fill="#F58220"/>
<path fill-rule="evenodd" clip-rule="evenodd" d="M19.6875 81.2219H20.5562V79.2001H21.1812C21.5073 79.2092 21.8332 79.1745 22.15 79.0969C22.4259 79.035 22.6746 78.886 22.8594 78.6719C23.0535 78.4054 23.1475 78.079 23.125 77.7501C23.1394 77.4467 23.0489 77.1477 22.8688 76.9032C22.6989 76.6941 22.4703 76.5407 22.2125 76.4626C21.9254 76.3733 21.6256 76.331 21.325 76.3376H19.6875V81.2219ZM20.5562 78.4563V77.0813H21.1812C21.3428 77.0787 21.5041 77.0934 21.6625 77.1251C21.811 77.1512 21.9487 77.2195 22.0594 77.3219C22.1693 77.4502 22.2281 77.6145 22.2247 77.7833C22.2212 77.9522 22.1557 78.1139 22.0406 78.2376C21.9154 78.3402 21.7637 78.4052 21.6031 78.4251C21.4324 78.4493 21.2599 78.4597 21.0875 78.4563H20.5562Z" fill="#F58220"/>
<path fill-rule="evenodd" clip-rule="evenodd" d="M23.9033 81.2217H24.7721V79.1529H25.3971L26.5283 81.2217H27.5783L26.2939 79.0623C26.6172 79.0265 26.9151 78.8703 27.1283 78.6248C27.3301 78.3741 27.4344 78.0589 27.4221 77.7373C27.4375 77.4319 27.3446 77.1308 27.1596 76.8873C26.986 76.6786 26.7526 76.5281 26.4908 76.4561C26.2015 76.3724 25.9013 76.3324 25.6002 76.3373H23.9033V81.2217ZM24.7721 78.4092V77.0842H25.5252C25.6783 77.0805 25.8314 77.0941 25.9814 77.1248C26.1209 77.149 26.2509 77.2118 26.3564 77.3061C26.4103 77.363 26.4519 77.4304 26.4788 77.504C26.5057 77.5776 26.5172 77.656 26.5127 77.7342C26.5184 77.8176 26.5066 77.9013 26.4781 77.9798C26.4496 78.0584 26.4049 78.1301 26.3471 78.1905C26.2342 78.291 26.0938 78.3552 25.9439 78.3748C25.781 78.4036 25.6155 78.4151 25.4502 78.4092H24.7721Z" fill="#F58220"/>
<path fill-rule="evenodd" clip-rule="evenodd" d="M28.0003 78.8C27.9939 79.2672 28.1091 79.7282 28.3347 80.1375C28.5485 80.5128 28.8636 80.8204 29.2441 81.025C29.6565 81.2399 30.1165 81.3474 30.5816 81.3375C31.0536 81.3357 31.5181 81.2188 31.9347 80.9968C32.3163 80.7899 32.6324 80.4803 32.8472 80.1031C33.0763 79.6939 33.1928 79.2313 33.1847 78.7625C33.1938 78.2855 33.0774 77.8146 32.8472 77.3968C32.635 77.0184 32.3182 76.7092 31.9347 76.5062C31.5146 76.3036 31.0536 76.1999 30.5872 76.2032C30.1208 76.2064 29.6613 76.3165 29.2441 76.525C28.8622 76.7333 28.547 77.0453 28.3347 77.425C28.1084 77.8441 27.9932 78.3143 28.0003 78.7906V78.8ZM28.9128 78.7343C28.909 78.4268 28.9809 78.1231 29.1222 77.85C29.2569 77.5926 29.4588 77.3766 29.7066 77.225C29.9732 77.0673 30.2781 76.9862 30.5878 76.9906C30.9005 76.9862 31.2084 77.0673 31.4784 77.225C31.7262 77.3766 31.9281 77.5926 32.0628 77.85C32.2381 78.1994 32.3079 78.5924 32.2635 78.9809C32.2191 79.3694 32.0625 79.7365 31.8128 80.0375C31.6548 80.2016 31.4653 80.3322 31.2556 80.4214C31.0459 80.5107 30.8204 80.5566 30.5925 80.5566C30.3646 80.5566 30.1391 80.5107 29.9294 80.4214C29.7197 80.3322 29.5302 80.2016 29.3722 80.0375C29.0649 79.68 28.9012 79.2212 28.9128 78.75" fill="#F58220"/>
<path d="M35.3689 81.2218H36.1189L38.0939 76.3374H37.1564L35.7814 80.028L34.4502 76.3374H33.4502L35.3689 81.2218Z" fill="#F58220"/>
<path d="M39.4625 76.3374H38.5938V81.2249H39.4625V76.3374Z" fill="#F58220"/>
<path d="M40.541 81.2218H41.4098V77.4749H41.4223L43.8379 81.2218H44.9441V76.3374H44.0723V79.9655H44.0598L41.691 76.3374H40.541V81.2218Z" fill="#F58220"/>
<path d="M50.3745 78.3655H48.4995V79.153H49.4995V80.3124C49.3362 80.4019 49.1602 80.4662 48.9776 80.503C48.7725 80.5486 48.5627 80.5696 48.3526 80.5655C48.1245 80.5716 47.8976 80.5288 47.6874 80.4399C47.4771 80.3509 47.2884 80.2179 47.1339 80.0499C46.8864 79.7478 46.7311 79.3809 46.6868 78.9929C46.6425 78.6049 46.7109 78.2124 46.8839 77.8624C47.0186 77.605 47.2206 77.389 47.4683 77.2374C47.7359 77.0793 48.0419 76.9982 48.3526 77.003C48.5924 77.0017 48.8304 77.043 49.0558 77.1249C49.2688 77.2018 49.4635 77.322 49.6276 77.478L50.2526 76.828C50.0003 76.6077 49.7027 76.4456 49.3808 76.353C49.0382 76.2567 48.6835 76.2104 48.3276 76.2155C47.8626 76.2055 47.4026 76.313 46.9901 76.528C46.6083 76.7363 46.2931 77.0483 46.0808 77.428C45.8545 77.8471 45.7393 78.3173 45.7464 78.7936C45.74 79.2609 45.8552 79.7218 46.0808 80.1311C46.2945 80.5065 46.6097 80.814 46.9901 81.0186C47.4026 81.2336 47.8626 81.3411 48.3276 81.3311C48.6885 81.333 49.0483 81.2921 49.3995 81.2092C49.7256 81.1284 50.0405 81.0077 50.337 80.8499L50.3745 78.3655Z" fill="#F58220"/>
<path d="M53.4688 81.2218H54.3375V79.0687H56.6219V81.2218H57.4906V76.3374H56.6219V78.2843H54.3375V76.3374H53.4688V81.2218Z" fill="#F58220"/>
<path d="M58.5811 81.2218H61.9404V80.4374H59.4498V79.1093H61.6904V78.3249H59.4498V77.1218H61.8154V76.3374H58.5811V81.2218Z" fill="#F58220"/>
<path fill-rule="evenodd" clip-rule="evenodd" d="M62.25 81.2218H63.2219L63.6656 80.1062H65.7813L66.2375 81.2218H67.2313L65.1281 76.3374H64.375L62.25 81.2218ZM63.9594 79.3468L64.7281 77.3593L65.4781 79.3468H63.9594Z" fill="#F58220"/>
<path d="M67.7783 81.2218H70.7252V80.4374H68.6471V76.3374H67.7783V81.2218Z" fill="#F58220"/>
<path d="M71.8309 81.2218H72.6996V77.1218H74.1965V76.3374H70.334V77.1218H71.8309V81.2218Z" fill="#F58220"/>
<path d="M74.7871 81.2218H75.6559V79.0687H77.9434V81.2218H78.8121V76.3374H77.9434V78.2843H75.6559V76.3374H74.7871V81.2218Z" fill="#F58220"/>
<path fill-rule="evenodd" clip-rule="evenodd" d="M56.3691 57.2501H67.9754C69.9636 57.2778 71.9442 56.9985 73.8473 56.422C75.596 55.9173 77.1639 54.923 78.366 53.5563C79.5306 52.2084 80.1327 50.3751 80.1723 48.0563C80.1348 45.948 79.4806 44.1897 78.2098 42.7813C76.9074 41.3613 75.1272 40.4712 73.2098 40.2813V40.1907C74.7771 39.7612 76.1827 38.8784 77.2504 37.6532C78.2587 36.4657 78.7796 34.9595 78.8129 33.1345C78.7775 31.1845 78.2848 29.6147 77.3348 28.4251C76.3791 27.2324 75.1064 26.3334 73.6629 25.8313C72.1478 25.2871 70.5477 25.0172 68.9379 25.0345H56.3754L56.3691 57.2501ZM62.0973 29.9345H66.8348C68.9868 29.9345 70.5681 30.2782 71.5785 30.9657C72.5889 31.6532 73.0879 32.6949 73.0754 34.0907C73.0927 34.6591 72.9711 35.2231 72.7211 35.7339C72.4712 36.2447 72.1004 36.6868 71.641 37.022C70.6848 37.7574 69.2504 38.1251 67.3379 38.1251H62.0973V29.9345ZM62.0973 43.0595H67.6098C69.9243 43.0386 71.6431 43.3761 72.766 44.072C73.8889 44.7678 74.4473 45.948 74.441 47.6126C74.4098 49.0063 74.0191 50.048 73.2691 50.7376C72.498 51.43 71.5488 51.8933 70.5285 52.0751C69.493 52.2842 68.4379 52.3806 67.3816 52.3626H62.0973V43.0595Z" fill="white"/>
</svg>
